<?xml version="1.0" standalone="no"?>
<!DOCTYPE svg PUBLIC "-//W3C//DTD SVG 20010904//EN"
 "http://www.w3.org/TR/2001/REC-SVG-20010904/DTD/svg10.dtd">
<svg version="1.0" xmlns="http://www.w3.org/2000/svg"
 width="154.000000pt" height="154.000000pt" viewBox="0 0 154.000000 154.000000"
 preserveAspectRatio="xMidYMid meet">
<metadata>
Created by potrace 1.11, written by Peter Selinger 2001-2013
</metadata>
<g transform="translate(0.000000,154.000000) scale(0.100000,-0.100000)"
fill="#000000" stroke="none">
<path d="M786 1462 c-27 -42 -47 -77 -45 -77 2 0 -2 -7 -8 -15 -54 -64 -91
-130 -75 -130 5 0 30 20 55 45 26 25 52 45 58 45 15 0 544 -520 544 -534 0 -6
-26 -13 -60 -16 l-60 -5 -3 -274 c-1 -182 -6 -279 -13 -288 -17 -20 -367 -19
-375 2 -3 8 -2 20 2 27 11 17 14 148 4 174 -6 15 -3 30 11 50 10 16 19 43 19
60 0 21 10 40 35 64 44 42 58 86 49 146 -9 62 -53 109 -114 125 -40 11 -51 9
-92 -9 -63 -28 -88 -69 -88 -145 0 -64 15 -100 54 -134 14 -13 26 -33 26 -45
0 -13 7 -36 15 -52 11 -21 16 -64 17 -150 l2 -121 -183 -3 c-127 -2 -188 1
-197 9 -11 9 -14 65 -14 285 0 239 -2 274 -15 274 -9 0 -28 -21 -43 -46 -15
-26 -32 -51 -37 -58 -6 -6 -25 -33 -42 -61 -18 -27 -39 -59 -48 -70 -8 -11
-34 -49 -57 -85 -23 -36 -45 -67 -50 -68 -4 -2 -6 -7 -3 -12 2 -4 -4 -15 -15
-25 -11 -10 -20 -24 -20 -32 0 -7 -4 -13 -10 -13 -6 0 -10 -57 -10 -150 l0
-150 770 0 770 0 0 770 0 770 -352 0 -353 -1 -49 -77z m406 -155 c9 -14 11
-258 2 -281 -3 -9 -11 -16 -18 -16 -6 1 -59 47 -118 104 -106 100 -108 103
-108 147 0 68 8 72 130 65 64 -4 107 -12 112 -19z m-374 -523 c44 -31 13 -125
-42 -124 -45 1 -82 53 -67 94 18 45 68 59 109 30z"/>
</g>
</svg>
